[b]Artist:[/b] Korn
[b]Album:[/b] Korn III: Remember Who You Are (Special Edition)
[b]Year of Release:[/b] 2010
[b]Origin:[/b] Bakersfield, California, USA
[b]Genre:[/b] Alternative Metal
[b]Album Type:[/b] Full Length
[b]# of Tracks:[/b] 14
[b]Playing Time:[/b] 61:30
[b]File Size:[/b] 420 MB
[b]Format:[/b] FLAC (Tracks/CUE/Log)


Exact Audio Copy V0.99 prebeta 5 from 4. May 2009

EAC extraction logfile from 21. July 2010, 6:15

Korn / Korn III: Remember Who You Are (Special Edition)

Used drive  : TSSTcorpDVD+-RW TS-L632D   Adapter: 2  ID: 0

Read mode               : Secure
Utilize accurate stream : Yes
Defeat audio cache      : No
Make use of C2 pointers : Yes

Read offset correction                      : 6
Overread into Lead-In and Lead-Out          : No
Fill up missing offset samples with silence : Yes
Delete leading and trailing silent blocks   : No
Null samples used in CRC calculations       : Yes
Used interface                              : Native Win32 interface for Win NT & 2000
Gap handling                                : Appended to previous track

Used output format              : User Defined Encoder
Selected bitrate                : 1024 kBit/s
Quality                         : High
Add ID3 tag                     : No
Command line compressor         : C:Program Files (x86)Exact Audio CopyFlacflac.exe
Additional command line options : -V -8 -T "artist=%a" -T "title=%t" -T "album=%g" -T "date=%y" -T "tracknumber=%n" -T "genre=%m" %s  


TOC of the extracted CD

     Track |   Start  |  Length  | Start sector | End sector 
    ---------------------------------------------------------
        1  |  0:00.00 |  1:28.42 |         0    |     6641   
        2  |  1:28.42 |  4:43.07 |      6642    |    27873   
        3  |  6:11.49 |  3:59.38 |     27874    |    45836   
        4  | 10:11.12 |  3:09.23 |     45837    |    60034   
        5  | 13:20.35 |  3:48.04 |     60035    |    77138   
        6  | 17:08.39 |  4:24.63 |     77139    |    97001   
        7  | 21:33.27 |  3:56.07 |     97002    |   114708   
        8  | 25:29.34 |  5:05.38 |    114709    |   137621   
        9  | 30:34.72 |  5:29.59 |    137622    |   162355   
       10  | 36:04.56 |  3:58.49 |    162356    |   180254   
       11  | 40:03.30 |  4:38.38 |    180255    |   201142   
       12  | 44:41.68 |  4:20.42 |    201143    |   220684   
       13  | 49:02.35 |  7:05.13 |    220685    |   252572   
       14  | 56:07.48 |  5:28.38 |    252573    |   277210   


Track  1

     Filename C:EACKorn III- Remember Who You Are (Special Edition) 1 - Uber-Time.wav

     Pre-gap length  0:00:02.00

     Peak level 87.1 %
     Track quality 100.0 %
     Test CRC 06807EF4
     Copy CRC 06807EF4
     Track not present in AccurateRip database
     Copy OK

Track  2

     Filename C:EACKorn III- Remember Who You Are (Special Edition) 2 - Oildale (Leave Me Alone).wav

     Peak level 100.0 %
     Track quality 100.0 %
     Test CRC 4E467A45
     Copy CRC 4E467A45
     Track not present in AccurateRip database
     Copy OK

Track  3

     Filename C:EACKorn III- Remember Who You Are (Special Edition) 3 - Pop A Pill.wav

     Peak level 100.0 %
     Track quality 100.0 %
     Test CRC 99BC352D
     Copy CRC 99BC352D
     Track not present in AccurateRip database
     Copy OK

Track  4

     Filename C:EACKorn III- Remember Who You Are (Special Edition) 4 - Fear Is A Place To Live.wav

     Peak level 100.0 %
     Track quality 99.8 %
     Test CRC FBD8CB2C
     Copy CRC FBD8CB2C
     Track not present in AccurateRip database
     Copy OK

Track  5

     Filename C:EACKorn III- Remember Who You Are (Special Edition) 5 - Move On.wav

     Peak level 100.0 %
     Track quality 100.0 %
     Test CRC 3F5C669A
     Copy CRC 3F5C669A
     Track not present in AccurateRip database
     Copy OK

Track  6

     Filename C:EACKorn III- Remember Who You Are (Special Edition) 6 - Lead The Parade.wav

     Peak level 100.0 %
     Track quality 100.0 %
     Test CRC 2EB3FA8F
     Copy CRC 2EB3FA8F
     Track not present in AccurateRip database
     Copy OK

Track  7

     Filename C:EACKorn III- Remember Who You Are (Special Edition) 7 - Let The Guilt Go.wav

     Peak level 100.0 %
     Track quality 100.0 %
     Test CRC 014FDBD0
     Copy CRC 014FDBD0
     Track not present in AccurateRip database
     Copy OK

Track  8

     Filename C:EACKorn III- Remember Who You Are (Special Edition) 8 - The Past.wav

     Peak level 100.0 %
     Track quality 100.0 %
     Test CRC 566C2166
     Copy CRC 566C2166
     Track not present in AccurateRip database
     Copy OK

Track  9

     Filename C:EACKorn III- Remember Who You Are (Special Edition) 9 - Never Around.wav

     Peak level 100.0 %
     Track quality 100.0 %
     Test CRC E8107346
     Copy CRC E8107346
     Track not present in AccurateRip database
     Copy OK

Track 10

     Filename C:EACKorn III- Remember Who You Are (Special Edition)10 - Are You Ready To Live .wav

     Peak level 100.0 %
     Track quality 100.0 %
     Test CRC 702F20BB
     Copy CRC 702F20BB
     Track not present in AccurateRip database
     Copy OK

Track 11

     Filename C:EACKorn III- Remember Who You Are (Special Edition)11 - Holding All These Lies.wav

     Peak level 100.0 %
     Track quality 100.0 %
     Test CRC 70196776
     Copy CRC 70196776
     Track not present in AccurateRip database
     Copy OK

Track 12

     Filename C:EACKorn III- Remember Who You Are (Special Edition)12 - Trapped Underneath The Stairs (Bonus Track).wav

     Peak level 100.0 %
     Track quality 100.0 %
     Test CRC 92D5E9E8
     Copy CRC 92D5E9E8
     Track not present in AccurateRip database
     Copy OK

Track 13

     Filename C:EACKorn III- Remember Who You Are (Special Edition)13 - People Pleaser (Bonus Track).wav

     Peak level 100.0 %
     Track quality 99.9 %
     Test CRC CBD1B859
     Copy CRC CBD1B859
     Track not present in AccurateRip database
     Copy OK

Track 14

     Filename C:EACKorn III- Remember Who You Are (Special Edition)14 - Blind (Live) (Bonus Track).wav

     Peak level 100.0 %
     Track quality 100.0 %
     Test CRC FFDAAAF3
     Copy CRC FFDAAAF3
     Track not present in AccurateRip database
     Copy OK


None of the tracks are present in the AccurateRip database

No errors occurred

End of status report


Share, seed & enjoy the newest Korn album!!!